<svg width="278" height="49" viewBox="0 0 278 49" fill="none" xmlns="http://www.w3.org/2000/svg">
<path d="M10.304 18.328C12.4587 18.328 14.3253 18.84 15.904 19.864L15.392 22.2L15.104 22.264C13.6747 21.0693 12.032 20.472 10.176 20.472C8.14933 20.472 6.592 21.176 5.504 22.584C4.416 23.9707 3.872 26.008 3.872 28.696C3.872 31.4053 4.416 33.4747 5.504 34.904C6.592 36.3333 8.128 37.048 10.112 37.048C11.0507 37.048 11.9787 36.8773 12.896 36.536C13.8347 36.1947 14.688 35.7147 15.456 35.096L15.776 35.256L15.552 37.688C13.696 38.712 11.808 39.224 9.888 39.224C7.136 39.224 5.00267 38.3387 3.488 36.568C1.97333 34.776 1.216 32.2267 1.216 28.92C1.216 25.528 2.00533 22.9147 3.584 21.08C5.16267 19.2453 7.40267 18.328 10.304 18.328ZM31.121 29.048C31.1423 28.1733 30.9397 27.4907 30.513 27C30.0863 26.5093 29.457 26.264 28.625 26.264C27.217 26.264 25.777 27.0213 24.305 28.536L24.241 32.568L24.401 39H21.873L22.065 32.76L21.905 16.76L24.433 16.536L24.305 26.424H24.497C25.8197 25.2507 27.1743 24.4933 28.561 24.152C30.1823 24.152 31.409 24.5253 32.241 25.272C33.073 26.0187 33.4783 27.0853 33.457 28.472L33.393 32.632L33.521 39H30.961L31.121 29.048ZM42.082 31.576V31.64C42.082 33.432 42.4873 34.808 43.298 35.768C44.1087 36.728 45.2607 37.208 46.754 37.208C47.5007 37.208 48.2473 37.0907 48.994 36.856C49.7407 36.6 50.4233 36.248 51.042 35.8L51.298 35.992L50.914 38.168C49.4207 38.8933 47.9273 39.256 46.434 39.256C44.3433 39.256 42.7007 38.5947 41.506 37.272C40.3113 35.928 39.714 34.0933 39.714 31.768C39.714 29.4213 40.3113 27.5547 41.506 26.168C42.7007 24.7813 44.3113 24.088 46.338 24.088C48.0447 24.088 49.3673 24.5787 50.306 25.56C51.2447 26.52 51.714 27.864 51.714 29.592C51.714 30.168 51.6713 30.712 51.586 31.224L51.266 31.544L42.082 31.576ZM46.338 25.88C45.2713 25.88 44.3753 26.232 43.65 26.936C42.946 27.6187 42.4767 28.5893 42.242 29.848L49.314 29.72L49.378 29.272C49.378 28.184 49.1113 27.352 48.578 26.776C48.066 26.1787 47.3193 25.88 46.338 25.88ZM59.392 31.576V31.64C59.392 33.432 59.7973 34.808 60.608 35.768C61.4187 36.728 62.5707 37.208 64.064 37.208C64.8107 37.208 65.5573 37.0907 66.304 36.856C67.0507 36.6 67.7333 36.248 68.352 35.8L68.608 35.992L68.224 38.168C66.7307 38.8933 65.2373 39.256 63.744 39.256C61.6533 39.256 60.0107 38.5947 58.816 37.272C57.6213 35.928 57.024 34.0933 57.024 31.768C57.024 29.4213 57.6213 27.5547 58.816 26.168C60.0107 24.7813 61.6213 24.088 63.648 24.088C65.3547 24.088 66.6773 24.5787 67.616 25.56C68.5547 26.52 69.024 27.864 69.024 29.592C69.024 30.168 68.9813 30.712 68.896 31.224L68.576 31.544L59.392 31.576ZM63.648 25.88C62.5813 25.88 61.6853 26.232 60.96 26.936C60.256 27.6187 59.7867 28.5893 59.552 29.848L66.624 29.72L66.688 29.272C66.688 28.184 66.4213 27.352 65.888 26.776C65.376 26.1787 64.6293 25.88 63.648 25.88ZM79.55 24.12C80.766 24.12 81.9393 24.3547 83.07 24.824L82.718 26.904L82.334 27C81.2673 26.296 80.2433 25.944 79.262 25.944C78.5367 25.944 77.95 26.1467 77.502 26.552C77.054 26.9573 76.83 27.448 76.83 28.024C76.83 28.6 77.054 29.0693 77.502 29.432C77.9713 29.7733 78.686 30.168 79.646 30.616C80.478 31 81.1393 31.352 81.63 31.672C82.142 31.9707 82.5793 32.376 82.942 32.888C83.3047 33.4 83.486 34.0293 83.486 34.776C83.486 35.5653 83.2833 36.3013 82.878 36.984C82.4727 37.6667 81.8753 38.2213 81.086 38.648C80.2967 39.0533 79.358 39.256 78.27 39.256C76.7767 39.256 75.358 38.904 74.014 38.2L74.334 36.024L74.622 35.832C75.2193 36.344 75.8593 36.7387 76.542 37.016C77.246 37.2933 77.9073 37.432 78.526 37.432C79.3153 37.432 79.9553 37.2187 80.446 36.792C80.9367 36.344 81.182 35.8213 81.182 35.224C81.182 34.648 80.9473 34.1893 80.478 33.848C80.03 33.4853 79.326 33.08 78.366 32.632C77.534 32.248 76.862 31.9067 76.35 31.608C75.838 31.288 75.4007 30.8613 75.038 30.328C74.6753 29.7947 74.494 29.1333 74.494 28.344C74.494 27.1067 74.942 26.0933 75.838 25.304C76.7553 24.5147 77.9927 24.12 79.55 24.12ZM91.1058 31.576V31.64C91.1058 33.432 91.5111 34.808 92.3218 35.768C93.1324 36.728 94.2844 37.208 95.7778 37.208C96.5244 37.208 97.2711 37.0907 98.0178 36.856C98.7644 36.6 99.4471 36.248 100.066 35.8L100.322 35.992L99.9378 38.168C98.4444 38.8933 96.9511 39.256 95.4578 39.256C93.3671 39.256 91.7244 38.5947 90.5298 37.272C89.3351 35.928 88.7378 34.0933 88.7378 31.768C88.7378 29.4213 89.3351 27.5547 90.5298 26.168C91.7244 24.7813 93.3351 24.088 95.3618 24.088C97.0684 24.088 98.3911 24.5787 99.3298 25.56C100.268 26.52 100.738 27.864 100.738 29.592C100.738 30.168 100.695 30.712 100.61 31.224L100.29 31.544L91.1058 31.576ZM95.3618 25.88C94.2951 25.88 93.3991 26.232 92.6738 26.936C91.9698 27.6187 91.5004 28.5893 91.2658 29.848L98.3378 29.72L98.4018 29.272C98.4018 28.184 98.1351 27.352 97.6018 26.776C97.0898 26.1787 96.3431 25.88 95.3618 25.88ZM112.544 24.088C113.205 24.088 113.888 24.1733 114.592 24.344C115.317 24.4933 115.946 24.696 116.48 24.952L116.032 27.16L115.744 27.256C114.634 26.5307 113.536 26.168 112.448 26.168C111.189 26.168 110.208 26.648 109.504 27.608C108.8 28.568 108.448 29.912 108.448 31.64C108.448 33.368 108.81 34.7333 109.536 35.736C110.282 36.7173 111.306 37.208 112.608 37.208C113.184 37.208 113.781 37.112 114.4 36.92C115.04 36.728 115.637 36.4613 116.192 36.12L116.48 36.28L116.192 38.424C114.89 38.9787 113.589 39.256 112.288 39.256C110.346 39.256 108.821 38.5947 107.712 37.272C106.602 35.928 106.048 34.0933 106.048 31.768C106.048 29.4 106.624 27.5333 107.776 26.168C108.949 24.7813 110.538 24.088 112.544 24.088ZM126.656 24.088C128.042 24.088 129.13 24.4293 129.92 25.112C130.73 25.7947 131.136 26.7333 131.136 27.928C131.136 28.2907 131.072 29.6027 130.944 31.864C130.816 34.1253 130.752 35.448 130.752 35.832C130.752 36.3013 130.826 36.632 130.976 36.824C131.125 36.9947 131.381 37.08 131.744 37.08C132.064 37.08 132.426 37.016 132.832 36.888L133.088 37.112L132.832 38.552C132.213 38.9147 131.605 39.128 131.008 39.192C130.346 39.128 129.813 38.8933 129.408 38.488C129.024 38.0827 128.821 37.528 128.8 36.824H128.576C127.424 37.9973 126.282 38.7973 125.152 39.224C123.722 39.224 122.602 38.872 121.792 38.168C121.002 37.4427 120.608 36.4613 120.608 35.224C120.608 34.2853 120.853 33.5387 121.344 32.984C121.856 32.4293 122.602 32.0347 123.584 31.8L128.768 30.584L128.8 28.504C128.8 27.672 128.576 27.032 128.128 26.584C127.701 26.136 127.082 25.912 126.272 25.912C125.546 25.912 124.821 26.0827 124.096 26.424C123.37 26.7653 122.592 27.2987 121.76 28.024L121.504 27.896L121.184 26.072C122.954 24.7493 124.778 24.088 126.656 24.088ZM124.096 33.336C123.669 33.464 123.36 33.6453 123.168 33.88C122.976 34.0933 122.88 34.424 122.88 34.872C122.88 35.576 123.072 36.1307 123.456 36.536C123.861 36.92 124.394 37.112 125.056 37.112C126.229 37.112 127.424 36.3547 128.64 34.84L128.736 32.216L124.096 33.336ZM141.661 32.568L141.821 39H139.293L139.485 32.76L139.325 16.76L141.853 16.536L141.661 32.568ZM144.797 31.064C146.269 33.048 148.317 35.544 150.941 38.552V38.84C150.536 38.968 150.088 39.064 149.597 39.128C149.128 39.2133 148.818 39.2667 148.669 39.288L148.349 39.16C145.938 36.3013 143.912 33.6773 142.269 31.288V31.064L146.845 25.656L147.677 24.344H150.557L144.797 31.064ZM156.971 31.576V31.64C156.971 33.432 157.376 34.808 158.187 35.768C158.997 36.728 160.149 37.208 161.643 37.208C162.389 37.208 163.136 37.0907 163.883 36.856C164.629 36.6 165.312 36.248 165.931 35.8L166.187 35.992L165.803 38.168C164.309 38.8933 162.816 39.256 161.323 39.256C159.232 39.256 157.589 38.5947 156.395 37.272C155.2 35.928 154.603 34.0933 154.603 31.768C154.603 29.4213 155.2 27.5547 156.395 26.168C157.589 24.7813 159.2 24.088 161.227 24.088C162.933 24.088 164.256 24.5787 165.195 25.56C166.133 26.52 166.603 27.864 166.603 29.592C166.603 30.168 166.56 30.712 166.475 31.224L166.155 31.544L156.971 31.576ZM161.227 25.88C160.16 25.88 159.264 26.232 158.539 26.936C157.835 27.6187 157.365 28.5893 157.131 29.848L164.203 29.72L164.267 29.272C164.267 28.184 164 27.352 163.467 26.776C162.955 26.1787 162.208 25.88 161.227 25.88Z" fill="white"/>
<path d="M223.392 24.088C224.779 24.088 225.867 24.4293 226.656 25.112C227.467 25.7947 227.872 26.7333 227.872 27.928C227.872 28.2907 227.808 29.6027 227.68 31.864C227.552 34.1253 227.488 35.448 227.488 35.832C227.488 36.3013 227.563 36.632 227.712 36.824C227.861 36.9947 228.117 37.08 228.48 37.08C228.8 37.08 229.163 37.016 229.568 36.888L229.824 37.112L229.568 38.552C228.949 38.9147 228.341 39.128 227.744 39.192C227.083 39.128 226.549 38.8933 226.144 38.488C225.76 38.0827 225.557 37.528 225.536 36.824H225.312C224.16 37.9973 223.019 38.7973 221.888 39.224C220.459 39.224 219.339 38.872 218.528 38.168C217.739 37.4427 217.344 36.4613 217.344 35.224C217.344 34.2853 217.589 33.5387 218.08 32.984C218.592 32.4293 219.339 32.0347 220.32 31.8L225.504 30.584L225.536 28.504C225.536 27.672 225.312 27.032 224.864 26.584C224.437 26.136 223.819 25.912 223.008 25.912C222.283 25.912 221.557 26.0827 220.832 26.424C220.107 26.7653 219.328 27.2987 218.496 28.024L218.24 27.896L217.92 26.072C219.691 24.7493 221.515 24.088 223.392 24.088ZM220.832 33.336C220.405 33.464 220.096 33.6453 219.904 33.88C219.712 34.0933 219.616 34.424 219.616 34.872C219.616 35.576 219.808 36.1307 220.192 36.536C220.597 36.92 221.131 37.112 221.792 37.112C222.965 37.112 224.16 36.3547 225.376 34.84L225.472 32.216L220.832 33.336ZM244.837 29.048C244.858 28.1733 244.655 27.4907 244.229 27C243.802 26.5093 243.173 26.264 242.341 26.264C240.997 26.264 239.546 27.0213 237.989 28.536V32.568L238.117 39H235.589L235.749 32.792L235.621 24.504L238.021 24.28V26.424H238.213C239.535 25.2507 240.89 24.4933 242.277 24.152C243.877 24.152 245.093 24.5253 245.925 25.272C246.778 26.0187 247.194 27.0853 247.173 28.472L247.109 32.632L247.237 39H244.677L244.837 29.048ZM254.809 32.792L254.713 24.504L257.177 24.28L257.113 32.568L257.177 39H254.681L254.809 32.792ZM255.993 17.784C256.419 17.784 256.761 17.912 257.017 18.168C257.273 18.424 257.401 18.776 257.401 19.224C257.401 19.6933 257.262 20.0667 256.985 20.344C256.729 20.6213 256.366 20.76 255.897 20.76C255.449 20.76 255.097 20.632 254.841 20.376C254.606 20.12 254.489 19.7573 254.489 19.288C254.489 18.84 254.617 18.4773 254.873 18.2C255.15 17.9227 255.523 17.784 255.993 17.784ZM269.791 24.088C271.177 24.088 272.265 24.4293 273.055 25.112C273.865 25.7947 274.271 26.7333 274.271 27.928C274.271 28.2907 274.207 29.6027 274.079 31.864C273.951 34.1253 273.887 35.448 273.887 35.832C273.887 36.3013 273.961 36.632 274.111 36.824C274.26 36.9947 274.516 37.08 274.879 37.08C275.199 37.08 275.561 37.016 275.967 36.888L276.223 37.112L275.967 38.552C275.348 38.9147 274.74 39.128 274.143 39.192C273.481 39.128 272.948 38.8933 272.543 38.488C272.159 38.0827 271.956 37.528 271.935 36.824H271.711C270.559 37.9973 269.417 38.7973 268.287 39.224C266.857 39.224 265.737 38.872 264.927 38.168C264.137 37.4427 263.743 36.4613 263.743 35.224C263.743 34.2853 263.988 33.5387 264.479 32.984C264.991 32.4293 265.737 32.0347 266.719 31.8L271.903 30.584L271.935 28.504C271.935 27.672 271.711 27.032 271.263 26.584C270.836 26.136 270.217 25.912 269.407 25.912C268.681 25.912 267.956 26.0827 267.231 26.424C266.505 26.7653 265.727 27.2987 264.895 28.024L264.639 27.896L264.319 26.072C266.089 24.7493 267.913 24.088 269.791 24.088ZM267.231 33.336C266.804 33.464 266.495 33.6453 266.303 33.88C266.111 34.0933 266.015 34.424 266.015 34.872C266.015 35.576 266.207 36.1307 266.591 36.536C266.996 36.92 267.529 37.112 268.191 37.112C269.364 37.112 270.559 36.3547 271.775 34.84L271.871 32.216L267.231 33.336Z" fill="white"/>
<path d="M175.592 43.768C174.952 43.768 174.632 43.448 174.632 42.808C174.632 41.08 176.568 37.8 180.44 32.968C184.344 28.136 188.408 23.976 192.632 20.488C194.168 17.256 194.936 14.744 194.936 12.952C194.936 10.808 193.864 9.736 191.72 9.736C189.704 9.736 187.32 10.744 184.568 12.76C181.848 14.776 179.544 17.032 177.656 19.528C175.768 21.992 174.824 23.928 174.824 25.336C174.824 26.36 175.416 26.872 176.6 26.872C178.296 26.872 180.136 26.008 182.12 24.28C184.136 22.552 185.64 20.872 186.632 19.24C186.984 18.664 187.272 18.376 187.496 18.376C187.72 18.376 187.832 18.488 187.832 18.712C187.832 18.936 187.768 19.128 187.64 19.288C186.552 20.92 184.824 22.792 182.456 24.904C180.088 27.016 177.928 28.072 175.976 28.072C174.024 28.072 173.048 27.352 173.048 25.912C173.048 24.664 173.72 23.048 175.064 21.064C176.408 19.08 178.04 17.176 179.96 15.352C181.912 13.496 184.088 11.912 186.488 10.6C188.92 9.256 191.08 8.584 192.968 8.584C195.432 8.584 196.664 9.8 196.664 12.232C196.664 13.832 196.088 15.992 194.936 18.712C198.104 16.376 200.648 15.208 202.568 15.208C203.72 15.208 204.296 15.816 204.296 17.032C204.296 18.248 203.224 20.616 201.08 24.136C198.936 27.624 196.792 30.776 194.648 33.592L191.432 37.864C191.432 37.928 191.448 37.96 191.48 37.96C192.696 37.128 194.824 35.304 197.864 32.488C200.936 29.672 203.752 27.24 206.312 25.192C208.904 23.144 210.824 22.12 212.072 22.12C212.808 22.12 213.176 22.488 213.176 23.224C213.176 23.96 212.216 25.608 210.296 28.168C208.376 30.728 206.456 33.352 204.536 36.04C202.616 38.728 201.656 40.584 201.656 41.608C201.656 42.632 202.088 43.144 202.952 43.144C203.944 43.144 205.24 42.648 206.84 41.656C208.44 40.632 209.56 39.816 210.2 39.208C210.84 38.6 211.24 38.296 211.4 38.296C211.56 38.296 211.64 38.36 211.64 38.488C211.64 38.872 211.096 39.528 210.008 40.456C208.952 41.384 207.608 42.264 205.976 43.096C204.376 43.928 203 44.344 201.848 44.344C200.312 44.344 199.544 43.72 199.544 42.472C199.544 41.192 200.072 39.64 201.128 37.816C202.216 35.992 203.4 34.296 204.68 32.728C208.328 28.376 210.36 25.496 210.776 24.088C210.776 23.736 210.616 23.56 210.296 23.56C209.528 23.56 207.16 25.288 203.192 28.744C199.224 32.2 196.312 34.824 194.456 36.616C192.6 38.408 191.352 39.624 190.712 40.264C190.072 40.904 189.576 41.416 189.224 41.8C188.872 42.184 188.52 42.536 188.168 42.856C187.496 43.464 187.048 43.768 186.824 43.768C186.792 43.768 186.76 43.752 186.728 43.72C186.44 43.592 186.296 43.368 186.296 43.048C186.296 42.248 187.32 40.568 189.368 38.008C192.984 33.528 196.056 29.272 198.584 25.24C201.144 21.208 202.424 18.52 202.424 17.176C202.424 16.664 202.104 16.408 201.464 16.408C199.896 16.408 197.432 17.816 194.072 20.632C191.64 25.624 188.312 30.728 184.088 35.944C179.864 41.16 177.032 43.768 175.592 43.768ZM176.648 42.52C177.48 42.52 179.576 40.344 182.936 35.992C186.296 31.608 189.128 27.256 191.432 22.936C187.784 26.296 184.312 30.024 181.016 34.12C177.752 38.184 176.12 40.808 176.12 41.992C176.12 42.344 176.296 42.52 176.648 42.52Z" fill="#742929"/>
</svg>
